<svg width="26" height="26" viewBox="0 0 26 26" fill="none" xmlns="http://www.w3.org/2000/svg">
<path d="M14 5C14 4.44772 13.5523 4 13 4C12.4477 4 12 4.44772 12 5H14ZM12 21C12 21.5523 12.4477 22 13 22C13.5523 22 14 21.5523 14 21H12ZM21 14C21.5523 14 22 13.5523 22 13C22 12.4477 21.5523 12 21 12V14ZM5 12C4.44772 12 4 12.4477 4 13C4 13.5523 4.44772 14 5 14V12ZM24 13C24 19.0751 19.0751 24 13 24V26C20.1797 26 26 20.1797 26 13H24ZM13 24C6.92487 24 2 19.0751 2 13H0C0 20.1797 5.8203 26 13 26V24ZM2 13C2 6.92487 6.92487 2 13 2V0C5.8203 0 0 5.8203 0 13H2ZM13 2C19.0751 2 24 6.92487 24 13H26C26 5.8203 20.1797 0 13 0V2ZM12 5V13H14V5H12ZM12 13V21H14V13H12ZM13 14H21V12H13V14ZM13 12H5V14H13V12Z" fill="#303030"/>
</svg>
