<svg width="18" height="18" viewBox="0 0 18 18" fill="none" xmlns="http://www.w3.org/2000/svg">
<path fill-rule="evenodd" clip-rule="evenodd" d="M8.54758 1C9.51093 1 9.63135 2.35594 9.75178 3.21883C9.8722 4.08168 10.956 4.57475 11.6785 4.04815C12.401 3.52155 13.3815 2.65354 14.0626 3.35085C14.7438 4.04815 14.0007 4.91252 13.3815 5.7914C12.7622 6.6703 13.1235 7.65645 14.4325 7.90298C15.7414 8.1495 16.6 8.1495 16.6 9.13565C16.6 10.1218 15.2754 10.2451 14.4325 10.3683C13.5895 10.4916 13.1079 11.601 13.6223 12.3406C14.1367 13.0802 14.9847 14.0839 14.3035 14.7812C13.6223 15.4785 12.7623 14.7177 11.9193 14.0839C11.0764 13.45 9.9926 13.8198 9.85655 14.7812C9.7205 15.7425 9.6157 17 8.65238 17C7.68903 17 7.5686 15.644 7.44818 14.7812C7.32775 13.9183 6.244 13.4252 5.52148 13.9518C4.79895 14.4784 3.8185 15.3465 3.13733 14.6491C2.45613 13.9518 3.19928 13.0875 3.8185 12.2086C4.43773 11.3297 4.07648 10.3435 2.7675 10.097C1.45854 9.8505 0.599976 9.8505 0.599976 8.86435C0.599976 7.8782 1.92458 7.75495 2.7675 7.63167C3.61043 7.5084 4.0921 6.399 3.57768 5.65938C3.06323 4.91978 2.21529 3.91613 2.89648 3.2188C3.57768 2.52151 4.30165 3.25748 5.28065 3.91613C6.25963 4.57475 7.22298 4.20495 7.3434 3.21883C7.46383 2.23268 7.58425 1 8.54758 1ZM8.668 11.8475C10.1976 11.8475 11.4376 10.5782 11.4376 9.01237C11.4376 7.44657 10.1976 6.17723 8.668 6.17723C7.13838 6.17723 5.89838 7.44657 5.89838 9.01237C5.89838 10.5782 7.13838 11.8475 8.668 11.8475Z" stroke="#303030" stroke-linecap="round" stroke-linejoin="round"/>
</svg>
